<svg width="1443" height="480" viewBox="0 0 1443 480" fill="none" xmlns="http://www.w3.org/2000/svg">
<path d="M449 430H362L206 50H294L449 430Z" fill="url(#paint0_linear_2004_1044)"/>
<path d="M138 430H50L206 50H294L138 430Z" fill="url(#paint1_linear_2004_1044)"/>
<path d="M579 430H499V210H579V430ZM539 106C561.091 106 579 123.909 579 146C579 168.091 561.091 186 539 186C516.909 186 499 168.091 499 146C499 123.909 516.909 106 539 106Z" fill="url(#paint2_linear_2004_1044)"/>
<path d="M764 50C863.411 50 944 130.589 944 230V250C944 349.411 863.411 430 764 430H629V50H764ZM709 130V350H754C814.751 350 864 300.751 864 240C864 179.249 814.751 130 754 130H709Z" fill="url(#paint3_linear_2004_1044)"/>
<path d="M629 50H709V430H629V50Z" fill="#B93BFF"/>
<path d="M1193.5 323.354L1305 50H1393L1237 430H1150L994 50H1082L1193.5 323.354Z" fill="url(#paint4_linear_2004_1044)"/>
<path d="M1074 430H994V50H1074V430ZM1393 430H1313V50H1393V430Z" fill="#B93BFF"/>
<defs>
<linearGradient id="paint0_linear_2004_1044" x1="249.5" y1="50" x2="408.5" y2="430" gradientUnits="userSpaceOnUse">
<stop stop-color="#500082"/>
<stop offset="1" stop-color="#9F00FD"/>
</linearGradient>
<linearGradient id="paint1_linear_2004_1044" x1="248.5" y1="50" x2="95.5" y2="430" gradientUnits="userSpaceOnUse">
<stop stop-color="#A100FF"/>
<stop offset="1" stop-color="#A100FF"/>
</linearGradient>
<linearGradient id="paint2_linear_2004_1044" x1="539" y1="106" x2="539" y2="185" gradientUnits="userSpaceOnUse">
<stop stop-color="#8B0AD9"/>
<stop offset="1" stop-color="#AE30F6"/>
</linearGradient>
<linearGradient id="paint3_linear_2004_1044" x1="702" y1="78" x2="762.5" y2="350.5" gradientUnits="userSpaceOnUse">
<stop stop-color="#6F2399"/>
<stop offset="0.503688" stop-color="#B93BFF"/>
<stop offset="1" stop-color="#B93BFF"/>
</linearGradient>
<linearGradient id="paint4_linear_2004_1044" x1="1193" y1="68" x2="1193" y2="376.5" gradientUnits="userSpaceOnUse">
<stop stop-color="#6C1B9A"/>
<stop offset="1" stop-color="#B93BFF"/>
</linearGradient>
</defs>
</svg>
